<svg version="1.2" baseProfile="tiny-ps" xmlns="http://www.w3.org/2000/svg" viewBox="0 0 39 34" width="39" height="34">
	<title>logo-svg</title>
	<style>
		tspan { white-space:pre }
		.shp0 { fill: #000000 } 
	</style>
	<g id="Symbols">
		<g id="main-logo-rev">
			<g id="Group-65">
				<g id="Group-64">
					<path id="Fill-2" class="shp0" d="M2.6 0.05C2.4 0.05 2.4 0.15 2.6 0.25C3.1 0.45 19.3 5.65 19.3 5.65L19.3 3.85C19.3 3.85 3.8 0.35 3.4 0.25C3.2 0.15 2.7 0.05 2.6 0.05Z" />
					<path id="Fill-4" class="shp0" d="M23.5 4.75L21.3 4.25L21.2 6.15L23.2 6.85L23.5 4.75Z" />
					<path id="Fill-6" class="shp0" d="M24.1 0.05L21.6 0.05L21.5 2.15L23.8 2.45L24.1 0.05Z" />
					<path id="Fill-8" class="shp0" d="M28.2 5.85L25.9 5.25L25.4 7.45L27.5 8.15L28.2 5.85Z" />
					<path id="Fill-10" class="shp0" d="M19.3 0.05C19.3 0.05 5.8 0.05 5.6 0.05C5.5 0.05 5.4 0.05 5.4 0.05C5.4 0.15 5.4 0.15 5.6 0.15C6.1 0.25 19.3 1.85 19.3 1.85L19.3 0.05Z" />
					<path id="Fill-12" class="shp0" d="M24.5 11.75L26.2 12.65L26.8 10.45L24.9 9.75L24.5 11.75Z" />
					<path id="Fill-14" class="shp0" d="M30 0.05L27 0.05L26.4 2.75L29.1 3.15L30 0.05Z" />
					<path id="Fill-16" class="shp0" d="M29 11.35L28.1 13.55L30 14.45L31.2 12.25L29 11.35Z" />
					<path id="Fill-18" class="shp0" d="M1 0.05C0.9 0.15 1.1 0.15 1.3 0.25C1.4 0.35 19.3 9.25 19.3 9.25L19.3 7.45C19.3 7.45 1.8 0.35 1.6 0.25C1.3 0.05 1.1 -0.05 1 0.05Z" />
					<path id="Fill-21" class="shp0" d="M33.7 0.05L32.2 3.55L36 3.95L38.3 -0.05L33.7 0.05Z" />
					<path id="Fill-23" class="shp0" d="M19.3 33.05C19.3 32.85 19.3 11.05 19.3 11.05C19.3 11.05 0.3 0.15 0.2 0.05C-0.1 -0.05 0 0.15 0.1 0.35C1.9 3.45 19.1 33.05 19.1 33.15C19.3 33.35 19.4 33.25 19.3 33.05Z" />
					<path id="Fill-25" class="shp0" d="M31 6.45L30 8.95L32.7 9.85L34.2 7.25L31 6.45Z" />
					<path id="Fill-27" class="shp0" d="M22.4 12.75L20.8 11.85C20.8 11.85 19.6 31.85 19.6 32.05C19.6 32.35 19.6 32.45 19.7 32.45C19.8 32.45 19.8 31.95 19.8 31.75C20 31.55 22.4 12.75 22.4 12.75Z" />
					<path id="Fill-29" class="shp0" d="M27.2 15.55C27.2 15.55 22 27.85 21.8 28.35C21.7 28.55 21.8 28.55 21.8 28.55C21.9 28.55 21.9 28.55 21.9 28.45C22.4 27.65 28.7 16.55 28.7 16.55L27.2 15.55Z" />
					<path id="Fill-31" class="shp0" d="M25.6 14.55L24 13.75C24 13.75 20.4 30.75 20.3 30.95L20.3 31.05C20.3 31.15 20.3 31.15 20.4 31.05C20.5 30.95 20.5 30.65 20.7 30.25C20.8 30.15 25.6 14.55 25.6 14.55Z" />
				</g>
			</g>
		</g>
	</g>
</svg>